<?xml version="1.0" encoding="UTF-8"?>
<svg version="1.1" xmlns="http://www.w3.org/2000/svg" width="145" height="130">
<path d="M0 0 C5.57458961 -0.14965341 10.67168192 0.26496919 16.125 1.5 C17.26050293 1.75414673 17.26050293 1.75414673 18.41894531 2.01342773 C30.56109994 4.90914764 42.95758877 9.13143377 54 15 C54.74615919 20.36129194 55.25256695 25.04599556 52.2421875 29.7421875 C49.91710664 32.27219074 47.4782792 34.62026799 45 37 C43.26533164 38.92917593 41.56910452 40.88888563 39.87133789 42.85058594 C36.72872509 46.4601832 33.49789926 49.98523928 30.25 53.5 C29.59128906 54.22703125 28.93257813 54.9540625 28.25390625 55.703125 C27.61839844 56.38890625 26.98289062 57.0746875 26.328125 57.78125 C25.7599707 58.40064453 25.19181641 59.02003906 24.60644531 59.65820312 C23 61 23 61 20 61 C18.98227021 55.2020242 18.76584069 50.7855922 22.203125 45.8125 C24.53588128 43.19796196 27.04116746 40.76695897 29.58886719 38.36328125 C31.58488279 36.4349506 33.38415038 34.35761849 35.1875 32.25 C35.73792969 31.61578125 36.28835937 30.9815625 36.85546875 30.328125 C37.23316406 29.88984375 37.61085938 29.4515625 38 29 C10.59546845 33.78491821 -15.63500644 45.11393094 -37 63 C-37.81017578 63.67240723 -37.81017578 63.67240723 -38.63671875 64.35839844 C-55.29175387 78.37275994 -74.04309091 101.49554542 -76 124 C-78 122 -78 122 -78.15234375 119.234375 C-76.49063198 92.28443145 -58.9524946 70.16364207 -39.69775391 52.49511719 C-19.83918952 35.00678697 4.5700728 24.49638476 30 18 C26.99786837 15.99857892 24.4976508 15.04296213 21.08984375 13.90625 C19.93548828 13.51566406 18.78113281 13.12507813 17.59179688 12.72265625 C15.15208568 11.90637661 12.71197982 11.09127564 10.27148438 10.27734375 C9.11841797 9.88675781 7.96535156 9.49617187 6.77734375 9.09375 C5.71765381 8.73990234 4.65796387 8.38605469 3.56616211 8.02148438 C1 7 1 7 -1 5 C-0.625 2.375 -0.625 2.375 0 0 Z " fill="#000000" transform="translate(85,6)"/>
</svg>
