<?xml version="1.0" encoding="UTF-8"?>
<svg version="1.1" xmlns="http://www.w3.org/2000/svg" width="85" height="88">
<path d="M0 0 C6.99085081 7.17979272 7.83134853 13.6853738 7.78959656 23.38299561 C7.75139673 26.0684107 7.68884053 28.75258401 7.625 31.4375 C7.59988598 33.27536029 7.57707829 35.11325363 7.55664062 36.95117188 C7.5018903 41.42660518 7.41579098 45.90043457 7.3125 50.375 C2.6925 50.375 -1.9275 50.375 -6.6875 50.375 C-6.6968457 49.37122314 -6.70619141 48.36744629 -6.71582031 47.33325195 C-6.75580231 43.5961529 -6.82158256 39.85987002 -6.89501953 36.12329102 C-6.92318186 34.50848911 -6.94442 32.89355057 -6.95849609 31.27856445 C-6.97999258 28.95192763 -7.02667211 26.62692523 -7.078125 24.30078125 C-7.07935364 23.58287918 -7.08058228 22.86497711 -7.08184814 22.12532043 C-7.22174247 17.29871608 -8.17655007 14.70914233 -11.6875 11.375 C-15.69553597 10.2090259 -17.74032711 9.94259499 -21.5625 11.6875 C-23.7770931 13.20225163 -23.7770931 13.20225163 -24.6875 15.375 C-24.84410883 17.99880313 -24.9457908 20.60024852 -25.00390625 23.2265625 C-25.02468735 24.00059418 -25.04546844 24.77462585 -25.06687927 25.57211304 C-25.13233448 28.04798392 -25.19124087 30.52396202 -25.25 33 C-25.29318907 34.67709448 -25.33680348 36.35417807 -25.38085938 38.03125 C-25.48801171 42.14572308 -25.58929045 46.26030414 -25.6875 50.375 C-30.6375 50.375 -35.5875 50.375 -40.6875 50.375 C-40.81214234 45.28882547 -40.90232392 40.20356144 -40.9621582 35.11621094 C-40.98712938 33.3898162 -41.02111907 31.66352529 -41.06469727 29.9375 C-41.55109123 10.16129362 -41.55109123 10.16129362 -34.31445312 1.78588867 C-24.60416941 -7.31009114 -10.76421452 -6.50859483 0 0 Z " fill="#F37520" transform="translate(73.6875,34.625)"/>
<path d="M0 0 C4.95 0 9.9 0 15 0 C15 17.82 15 35.64 15 54 C10.05 54 5.1 54 0 54 C0 36.18 0 18.36 0 0 Z " fill="#F37520" transform="translate(12,31)"/>
<path d="M0 0 C2.64 0 5.28 0 8 0 C8 1.98 8 3.96 8 6 C5.69 6 3.38 6 1 6 C1 8.64 1 11.28 1 14 C5.95 14 10.9 14 16 14 C16 18.62 16 23.24 16 28 C11.05 28 6.1 28 1 28 C1 23.71 1 19.42 1 15 C-1.97 15 -4.94 15 -8 15 C-8 12.03 -8 9.06 -8 6 C-5.36 6 -2.72 6 0 6 C0 4.02 0 2.04 0 0 Z " fill="#F37620" transform="translate(11,0)"/>
</svg>
