<?xml version="1.0" encoding="UTF-8"?>
<svg version="1.1" xmlns="http://www.w3.org/2000/svg" width="300" height="300">
<path d="M0 0 C32.01 0 64.02 0 97 0 C96.14240421 4.28797894 95.50390596 6.24494957 93.3671875 9.82421875 C92.81595215 10.75709717 92.2647168 11.68997559 91.69677734 12.65112305 C91.09559082 13.65312744 90.4944043 14.65513184 89.875 15.6875 C88.59305041 17.85375281 87.31182511 20.02043438 86.03125 22.1875 C85.36609375 23.30898438 84.7009375 24.43046875 84.015625 25.5859375 C80.76210001 31.09675308 77.56815667 36.64155634 74.375 42.1875 C73.75230225 43.26660645 73.12960449 44.34571289 72.48803711 45.45751953 C69.50768284 50.62627308 66.53997504 55.80167943 63.59765625 60.9921875 C63.06285645 61.93425049 62.52805664 62.87631348 61.97705078 63.84692383 C60.99189615 65.58461412 60.00952931 67.32388971 59.03076172 69.06518555 C55.9232026 74.54649633 52.56067447 79.80201996 49 85 C46.68830812 82.85279954 45.09802011 80.714762 43.51953125 77.98828125 C43.07802734 77.23095703 42.63652344 76.47363281 42.18164062 75.69335938 C41.72982422 74.90767578 41.27800781 74.12199219 40.8125 73.3125 C40.34908203 72.51521484 39.88566406 71.71792969 39.40820312 70.89648438 C38.26794823 68.93336513 37.13206227 66.96785129 36 65 C26.77093957 69.37446795 18.04021525 74.40884162 9.28027344 79.64160156 C5.34308097 81.9870554 1.38934869 84.30435766 -2.5625 86.625 C-4.00137411 87.47123171 -5.44018308 88.3175742 -6.87890625 89.1640625 C-7.90886719 89.76992187 -8.93882812 90.37578125 -10 91 C3.08932186 98.78160383 16.22824529 106.47048183 29.42919922 114.06079102 C30.47479004 114.66205811 31.52038086 115.2633252 32.59765625 115.8828125 C33.52070557 116.41277832 34.44375488 116.94274414 35.39477539 117.48876953 C36.68436157 118.23682861 36.68436157 118.23682861 38 119 C38.86277054 119.41005783 39.72554108 119.82011566 40.61445618 120.24259949 C43 122 43 122 43.68875122 124.54679871 C43.71685883 125.56413589 43.74496643 126.58147308 43.77392578 127.62963867 C43.81550812 128.78481491 43.85709045 129.93999115 43.89993286 131.13017273 C43.92239578 133.00513176 43.92239578 133.00513176 43.9453125 134.91796875 C43.96906952 136.20431717 43.99282654 137.49066559 44.01730347 138.81599426 C44.0607902 141.54227219 44.08203039 144.26778906 44.09130859 146.99438477 C44.10430661 149.78343312 44.15976104 152.56633381 44.25537109 155.35375977 C45.00618656 177.62922614 45.00618656 177.62922614 41.82199097 182.97927856 C38.49627925 186.34405147 34.41604313 187.62256161 30 189 C28.32420499 189.91337391 26.67078478 190.86988227 25.05078125 191.87890625 C23.47250032 192.77545819 21.89304181 193.66993983 20.3125 194.5625 C18.49190553 195.59716026 16.671607 196.63234137 14.8515625 197.66796875 C13.90313477 198.20728027 12.95470703 198.7465918 11.97753906 199.30224609 C6.70415105 202.3090631 1.44545291 205.34129491 -3.8125 208.375 C-5.450979 209.32028564 -5.450979 209.32028564 -7.12255859 210.28466797 C-14.53192781 214.5639634 -21.92550444 218.86972374 -29.3125 223.1875 C-37.17118246 227.77856337 -45.04224817 232.34707003 -52.9375 236.875 C-53.83831299 237.39344482 -54.73912598 237.91188965 -55.66723633 238.44604492 C-56.48732178 238.91502197 -57.30740723 239.38399902 -58.15234375 239.8671875 C-59.2350354 240.48762939 -59.2350354 240.48762939 -60.33959961 241.12060547 C-62 242 -62 242 -63 242 C-63 222.2 -63 202.4 -63 182 C-54.75 177.38 -46.5 172.76 -38 168 C-33.53090904 165.45248008 -29.06937108 162.90142385 -24.625 160.3125 C-23.11486328 159.44334961 -23.11486328 159.44334961 -21.57421875 158.55664062 C-20.61386719 157.99783203 -19.65351563 157.43902344 -18.6640625 156.86328125 C-17.83342285 156.38157471 -17.0027832 155.89986816 -16.14697266 155.40356445 C-14.14546705 154.0950978 -12.60866622 152.75848342 -11 151 C-11.65919434 150.64518555 -12.31838867 150.29037109 -12.99755859 149.92480469 C-19.95072779 146.16018643 -26.80502684 142.25008994 -33.625 138.25 C-34.57761719 137.693125 -35.53023437 137.13625 -36.51171875 136.5625 C-38.53519209 135.37880809 -40.54040972 134.16348643 -42.52856445 132.92138672 C-45.27526417 131.40113024 -47.59674627 130.40090225 -50.52416992 129.39501953 C-55.53512247 127.46259939 -59.85656983 125.50881437 -63 121 C-65.67470381 111.87942846 -64.67991013 101.8961763 -64.16729736 92.49963379 C-63.99211753 88.94808455 -63.91549373 85.39448382 -63.83007812 81.83984375 C-63.64873283 74.88817254 -63.35938638 67.94468518 -63 61 C-62.1963652 60.54143112 -61.39273041 60.08286224 -60.56474304 59.61039734 C-47.46823354 52.13679888 -34.37594675 44.65628826 -21.3125 37.125 C-20.24402832 36.50931152 -19.17555664 35.89362305 -18.07470703 35.25927734 C-13.2571237 32.47809224 -8.44927753 29.68300358 -3.66796875 26.83984375 C-2.87028076 26.36595215 -2.07259277 25.89206055 -1.25073242 25.40380859 C0.20342336 24.5372144 1.65526094 23.66671296 3.10424805 22.79150391 C7.7818544 20 7.7818544 20 10 20 C9.54560547 19.25109497 9.54560547 19.25109497 9.08203125 18.48706055 C7.71450726 16.22459729 6.35717585 13.9561845 5 11.6875 C4.52304688 10.90181641 4.04609375 10.11613281 3.5546875 9.30664062 C2.87792969 8.1706543 2.87792969 8.1706543 2.1875 7.01171875 C1.76855469 6.31522217 1.34960938 5.61872559 0.91796875 4.90112305 C0 3 0 3 0 0 Z " fill="#800571" transform="translate(153,34)"/>
<path d="M0 0 C0.99 0.66 1.98 1.32 3 2 C2.01 2.66 1.02 3.32 0 4 C13.08932186 11.78160383 26.22824529 19.47048183 39.42919922 27.06079102 C40.47479004 27.66205811 41.52038086 28.2633252 42.59765625 28.8828125 C43.52070557 29.41277832 44.44375488 29.94274414 45.39477539 30.48876953 C46.68436157 31.23682861 46.68436157 31.23682861 48 32 C48.86277054 32.41005783 49.72554108 32.82011566 50.61445618 33.24259949 C53 35 53 35 53.68875122 37.54679871 C53.71685883 38.56413589 53.74496643 39.58147308 53.77392578 40.62963867 C53.81550812 41.78481491 53.85709045 42.93999115 53.89993286 44.13017273 C53.92239578 46.00513176 53.92239578 46.00513176 53.9453125 47.91796875 C53.96906952 49.20431717 53.99282654 50.49066559 54.01730347 51.81599426 C54.0607902 54.54227219 54.08203039 57.26778906 54.09130859 59.99438477 C54.10430661 62.78343312 54.15976104 65.56633381 54.25537109 68.35375977 C55.00618656 90.62922614 55.00618656 90.62922614 51.82199097 95.97927856 C48.49627925 99.34405147 44.41604313 100.62256161 40 102 C38.32420499 102.91337391 36.67078478 103.86988227 35.05078125 104.87890625 C33.47250032 105.77545819 31.89304181 106.66993983 30.3125 107.5625 C28.49190553 108.59716026 26.671607 109.63234137 24.8515625 110.66796875 C23.90313477 111.20728027 22.95470703 111.7465918 21.97753906 112.30224609 C16.70415105 115.3090631 11.44545291 118.34129491 6.1875 121.375 C4.549021 122.32028564 4.549021 122.32028564 2.87744141 123.28466797 C-4.53192781 127.5639634 -11.92550444 131.86972374 -19.3125 136.1875 C-27.17118246 140.77856337 -35.04224817 145.34707003 -42.9375 149.875 C-43.83831299 150.39344482 -44.73912598 150.91188965 -45.66723633 151.44604492 C-46.48732178 151.91502197 -47.30740723 152.38399902 -48.15234375 152.8671875 C-49.2350354 153.48762939 -49.2350354 153.48762939 -50.33959961 154.12060547 C-52 155 -52 155 -53 155 C-53 135.2 -53 115.4 -53 95 C-44.75 90.38 -36.5 85.76 -28 81 C-23.53090904 78.45248008 -19.06937108 75.90142385 -14.625 73.3125 C-13.11486328 72.44334961 -13.11486328 72.44334961 -11.57421875 71.55664062 C-10.61386719 70.99783203 -9.65351563 70.43902344 -8.6640625 69.86328125 C-7.83342285 69.38157471 -7.0027832 68.89986816 -6.14697266 68.40356445 C-4.14546705 67.0950978 -2.60866622 65.75848342 -1 64 C-1.64904297 63.65026123 -2.29808594 63.30052246 -2.96679688 62.94018555 C-10.2137122 59.01391586 -17.37437798 54.95437831 -24.5 50.8125 C-25.56992188 50.19697266 -26.63984375 49.58144531 -27.7421875 48.94726562 C-28.76570313 48.35236328 -29.78921875 47.75746094 -30.84375 47.14453125 C-32.22336914 46.34559448 -32.22336914 46.34559448 -33.63085938 45.53051758 C-35.73346161 44.17218973 -37.32970782 42.84860902 -39 41 C-36.21839883 37.3942207 -33.25834344 34.17887165 -30 31 C-29.154375 30.154375 -28.30875 29.30875 -27.4375 28.4375 C-26.633125 27.633125 -25.82875 26.82875 -25 26 C-24.29875 25.236875 -23.5975 24.47375 -22.875 23.6875 C-21 22 -21 22 -18 22 C-17.42958984 20.69095703 -17.42958984 20.69095703 -16.84765625 19.35546875 C-14.84576977 15.71990747 -12.42626208 13.12060104 -9.4375 10.3125 C-6.66792785 7.66569897 -4.14110217 5.21165325 -2 2 C-1.34 1.34 -0.68 0.68 0 0 Z " fill="#6E076D" transform="translate(143,121)"/>
</svg>
