<?xml version="1.0" encoding="UTF-8"?>
<!DOCTYPE svg PUBLIC "-//W3C//DTD SVG 1.1//EN" "http://www.w3.org/Graphics/SVG/1.1/DTD/svg11.dtd">
<svg xmlns="http://www.w3.org/2000/svg" version="1.1" width="2000px" height="334px" style="shape-rendering:geometricPrecision; text-rendering:geometricPrecision; image-rendering:optimizeQuality; fill-rule:evenodd; clip-rule:evenodd" xmlns:xlink="http://www.w3.org/1999/xlink">
<g><path style="opacity:0.988" fill="#146df5" d="M -0.5,-0.5 C 47.5,-0.5 95.5,-0.5 143.5,-0.5C 143.167,38.5057 143.5,77.5057 144.5,116.5C 164.659,77.8483 183.993,38.8483 202.5,-0.5C 239.5,-0.5 276.5,-0.5 313.5,-0.5C 313.167,38.1724 313.5,76.8391 314.5,115.5C 335.036,77.0937 355.036,38.4271 374.5,-0.5C 427.833,-0.5 481.167,-0.5 534.5,-0.5C 478.357,111.119 421.691,222.452 364.5,333.5C 310.5,333.5 256.5,333.5 202.5,333.5C 225.503,287.328 249.169,241.495 273.5,196C 218.644,263.815 147.977,306.815 61.5,325C 45.1008,328.288 28.7675,331.121 12.5,333.5C 8.16667,333.5 3.83333,333.5 -0.5,333.5C -0.5,287.833 -0.5,242.167 -0.5,196.5C 35.2349,192.977 68.5683,182.144 99.5,164C 108.122,157.713 116.455,151.047 124.5,144C 82.8347,143.5 41.168,143.333 -0.5,143.5C -0.5,95.5 -0.5,47.5 -0.5,-0.5 Z"/></g>
<g><path style="opacity:0.96" fill="#070807" d="M 1133.5,31.5 C 1149.5,31.5 1165.5,31.5 1181.5,31.5C 1181.33,64.5017 1181.5,97.5017 1182,130.5C 1197.53,113.744 1216.86,105.411 1240,105.5C 1288,108.49 1317.33,133.49 1328,180.5C 1334.07,213.511 1327.4,243.511 1308,270.5C 1281.63,299.052 1249.8,307.552 1212.5,296C 1200.9,291.285 1190.73,284.451 1182,275.5C 1181.5,282.826 1181.33,290.159 1181.5,297.5C 1165.5,297.5 1149.5,297.5 1133.5,297.5C 1133.5,208.833 1133.5,120.167 1133.5,31.5 Z M 1221.5,149.5 C 1259,147.592 1278.66,165.425 1280.5,203C 1279.75,235.075 1263.58,253.241 1232,257.5C 1203.74,255.239 1186.74,240.239 1181,212.5C 1177.45,180.225 1190.95,159.225 1221.5,149.5 Z"/></g>
<g><path style="opacity:0.957" fill="#070807" d="M 1441.5,31.5 C 1443.17,31.5 1444.83,31.5 1446.5,31.5C 1446.5,45.8333 1446.5,60.1667 1446.5,74.5C 1423.91,75.4212 1411.91,87.0879 1410.5,109.5C 1422.17,109.5 1433.83,109.5 1445.5,109.5C 1445.5,123.167 1445.5,136.833 1445.5,150.5C 1433.5,150.5 1421.5,150.5 1409.5,150.5C 1409.5,199.5 1409.5,248.5 1409.5,297.5C 1393.59,297.825 1377.76,297.491 1362,296.5C 1361.5,247.834 1361.33,199.168 1361.5,150.5C 1351.83,150.5 1342.17,150.5 1332.5,150.5C 1332.5,136.833 1332.5,123.167 1332.5,109.5C 1342.17,109.666 1351.84,109.5 1361.5,109C 1366.58,60.9474 1393.25,35.1141 1441.5,31.5 Z"/></g>
<g><path style="opacity:0.955" fill="#070807" d="M 1462.5,31.5 C 1478.5,31.5 1494.5,31.5 1510.5,31.5C 1510.5,120.167 1510.5,208.833 1510.5,297.5C 1494.59,297.825 1478.76,297.491 1463,296.5C 1462.5,208.167 1462.33,119.834 1462.5,31.5 Z"/></g>
<g><path style="opacity:0.964" fill="#070807" d="M 599.5,47.5 C 617.833,47.5 636.167,47.5 654.5,47.5C 669.349,103.562 684.516,159.562 700,215.5C 716.645,159.93 733.145,104.263 749.5,48.5C 764.819,47.5006 780.152,47.1673 795.5,47.5C 812.691,102.574 830.191,157.574 848,212.5C 863.53,157.735 878.363,102.735 892.5,47.5C 909.167,47.5 925.833,47.5 942.5,47.5C 919.304,130.614 895.637,213.614 871.5,296.5C 855.833,297.833 840.167,297.833 824.5,296.5C 806.487,242.779 788.32,189.112 770,135.5C 753.19,189.428 736.69,243.428 720.5,297.5C 704.5,297.5 688.5,297.5 672.5,297.5C 648.478,214.077 624.144,130.743 599.5,47.5 Z"/></g>
<g><path style="opacity:0.958" fill="#070807" d="M 1012.5,105.5 C 1044.52,103.554 1071.68,113.888 1094,136.5C 1111.73,159.091 1119.07,184.757 1116,213.5C 1068.05,215.492 1019.88,216.159 971.5,215.5C 973.779,240.945 987.446,256.112 1012.5,261C 1030.83,263.224 1046.33,257.724 1059,244.5C 1061.09,241.327 1062.92,237.994 1064.5,234.5C 1081.15,233.501 1097.82,233.167 1114.5,233.5C 1108.33,260.517 1092.66,280.017 1067.5,292C 1042.18,302.281 1016.18,304.281 989.5,298C 945.605,282.268 922.938,250.935 921.5,204C 925.459,146.549 955.792,113.716 1012.5,105.5 Z M 1011.5,145.5 C 1035.84,142.414 1053.34,151.747 1064,173.5C 1064.95,176.432 1065.45,179.432 1065.5,182.5C 1034.59,182.171 1003.76,182.504 973,183.5C 977.672,162.661 990.506,149.995 1011.5,145.5 Z"/></g>
<g><path style="opacity:0.962" fill="#070807" d="M 1617.5,105.5 C 1649.89,103.349 1677.73,113.349 1701,135.5C 1723.41,163.146 1730.74,194.48 1723,229.5C 1712.23,268.938 1686.73,292.438 1646.5,300C 1612.35,305.968 1582.35,297.634 1556.5,275C 1532.73,248.998 1523.89,218.498 1530,183.5C 1541.17,137.155 1570.34,111.155 1617.5,105.5 Z M 1624.5,149.5 C 1658.14,151.855 1675.47,170.021 1676.5,204C 1673.87,242.968 1653.2,260.301 1614.5,256C 1589.77,247.397 1577.77,229.897 1578.5,203.5C 1578.51,172.175 1593.84,154.175 1624.5,149.5 Z"/></g>
<g><path style="opacity:0.959" fill="#070807" d="M 1999.5,109.5 C 1999.5,111.5 1999.5,113.5 1999.5,115.5C 1980.89,175.577 1962.72,235.911 1945,296.5C 1929.58,297.491 1914.08,297.824 1898.5,297.5C 1886.16,258.64 1873.32,219.974 1860,181.5C 1848.33,219.833 1836.67,258.167 1825,296.5C 1809.33,297.833 1793.67,297.833 1778,296.5C 1759.34,234.193 1740.84,171.86 1722.5,109.5C 1740.18,109.167 1757.85,109.5 1775.5,110.5C 1786.15,148.784 1796.65,187.117 1807,225.5C 1818.43,186.949 1829.93,148.449 1841.5,110C 1856.84,109.167 1872.18,109.334 1887.5,110.5C 1898.84,147.505 1910.17,184.505 1921.5,221.5C 1931.99,184.55 1942.32,147.55 1952.5,110.5C 1968.15,109.501 1983.82,109.167 1999.5,109.5 Z"/></g>
</svg>
