<?xml version="1.0" encoding="UTF-8"?>
<!DOCTYPE svg PUBLIC "-//W3C//DTD SVG 1.1//EN" "http://www.w3.org/Graphics/SVG/1.1/DTD/svg11.dtd">
<svg xmlns="http://www.w3.org/2000/svg" version="1.1" width="2000px" height="573px" style="shape-rendering:geometricPrecision; text-rendering:geometricPrecision; image-rendering:optimizeQuality; fill-rule:evenodd; clip-rule:evenodd" xmlns:xlink="http://www.w3.org/1999/xlink">
<g><path style="opacity:0.987" fill="#94bf48" d="M 215.5,-0.5 C 222.167,-0.5 228.833,-0.5 235.5,-0.5C 243.995,2.79903 251.329,7.96569 257.5,15C 272.156,15.155 284.822,20.155 295.5,30C 305.933,42.0296 313.933,55.5296 319.5,70.5C 327.027,67.0268 334.694,65.3602 342.5,65.5C 333.683,230.064 325.683,394.731 318.5,559.5C 212.15,539.498 105.817,519.498 -0.5,499.5C -0.5,496.833 -0.5,494.167 -0.5,491.5C 12.1225,396.704 24.6225,302.037 37,207.5C 38.6825,191.389 41.0158,175.389 44,159.5C 45.9842,156.254 48.8175,154.088 52.5,153C 71.4326,146.8 90.4326,140.8 109.5,135C 117.823,100.165 132.657,67.9985 154,38.5C 169.768,17.8736 190.268,4.87357 215.5,-0.5 Z M 219.5,20.5 C 223.915,20.3054 228.249,20.8054 232.5,22C 210.742,36.0927 195.242,55.2594 186,79.5C 182.192,91.0881 178.692,102.755 175.5,114.5C 163.536,118.432 151.536,122.266 139.5,126C 138.056,126.781 136.723,126.614 135.5,125.5C 143.951,95.576 157.785,68.576 177,44.5C 188.589,31.955 202.756,23.955 219.5,20.5 Z M 268.5,38.5 C 271.532,38.1046 274.532,38.9379 277.5,41C 288.701,50.756 295.367,62.756 297.5,77C 289.836,79.1102 282.336,81.6102 275,84.5C 274.854,72.4257 273.854,60.4257 272,48.5C 271.299,44.8909 270.132,41.5575 268.5,38.5 Z M 245.5,41.5 C 247.461,43.119 248.794,45.2857 249.5,48C 249.167,48.3333 248.833,48.6667 248.5,49C 253.283,62.4584 254.616,76.2917 252.5,90.5C 236.557,95.8548 220.557,101.021 204.5,106C 203.167,106.667 201.833,106.667 200.5,106C 206.017,85.9588 215.684,68.2921 229.5,53C 234.724,48.8999 240.057,45.0665 245.5,41.5 Z"/></g>
<g><path style="opacity:0.99" fill="#5f8e3d" d="M 342.5,65.5 C 344.308,65.4914 345.975,65.9914 347.5,67C 358.167,77.6667 368.833,88.3333 379.5,99C 394.386,101.353 409.386,102.687 424.5,103C 428,103.833 430.167,106 431,109.5C 450.766,245.888 470.932,382.222 491.5,518.5C 491.43,519.772 491.097,520.938 490.5,522C 433.446,534.421 376.113,546.921 318.5,559.5C 325.683,394.731 333.683,230.064 342.5,65.5 Z"/></g>
<g><path style="opacity:0.967" fill="#000000" d="M 1743.5,110.5 C 1754.51,110.333 1765.51,110.5 1776.5,111C 1783.59,112.033 1790.42,113.866 1797,116.5C 1792.69,134.733 1788.53,153.066 1784.5,171.5C 1756.79,161.451 1737.29,169.784 1726,196.5C 1723.22,204.294 1721.38,212.294 1720.5,220.5C 1735.83,220.5 1751.17,220.5 1766.5,220.5C 1763.63,238.188 1760.63,255.855 1757.5,273.5C 1741.83,273.5 1726.17,273.5 1710.5,273.5C 1698.83,336.842 1687.16,400.175 1675.5,463.5C 1652.17,463.5 1628.83,463.5 1605.5,463.5C 1616.8,400.098 1628.46,336.765 1640.5,273.5C 1630.15,273.832 1619.81,273.499 1609.5,272.5C 1612.83,255.5 1616.17,238.5 1619.5,221.5C 1629.82,220.668 1640.15,220.168 1650.5,220C 1654.12,193.122 1663.62,168.622 1679,146.5C 1695.9,126.299 1717.4,114.299 1743.5,110.5 Z"/></g>
<g><path style="opacity:0.969" fill="#000000" d="M 820.5,114.5 C 842.836,114.333 865.169,114.5 887.5,115C 888.022,115.561 888.355,116.228 888.5,117C 879.493,161.064 871.326,205.231 864,249.5C 888.393,221.229 918.893,211.063 955.5,219C 974.124,226.716 985.291,240.549 989,260.5C 991.268,278.923 990.602,297.257 987,315.5C 977.827,364.528 968.493,413.528 959,462.5C 935.908,463.494 912.742,463.827 889.5,463.5C 897.882,416.089 906.715,368.756 916,321.5C 917.769,309.145 917.769,296.811 916,284.5C 912.649,276.491 906.649,272.825 898,273.5C 890.184,273.325 883.351,275.825 877.5,281C 865.884,291.721 857.384,304.554 852,319.5C 848.817,327.926 846.483,336.593 845,345.5C 837.538,384.479 830.204,423.479 823,462.5C 799.575,463.494 776.075,463.827 752.5,463.5C 773.998,350.196 795.498,236.862 817,123.5C 817.119,119.985 818.286,116.985 820.5,114.5 Z"/></g>
<g><path style="opacity:0.949" fill="#000000" d="M 1567.5,118.5 C 1600.6,118.689 1613.77,135.022 1607,167.5C 1602.14,181.18 1592.64,189.68 1578.5,193C 1561.87,197.067 1548.7,192.234 1539,178.5C 1529.86,156.537 1534.7,138.37 1553.5,124C 1558.16,121.842 1562.83,120.009 1567.5,118.5 Z"/></g>
<g><path style="opacity:1" fill="#fefefd" d="M 167.5,473.5 C 157.15,473.56 146.817,473.226 136.5,472.5C 112.29,468.755 91.9563,457.922 75.5,440C 79.8047,423.92 84.8047,408.087 90.5,392.5C 99.489,399.665 109.156,405.832 119.5,411C 129.717,416.225 140.384,417.559 151.5,415C 158.52,411.639 163.02,406.139 165,398.5C 166.227,390.84 164.56,383.84 160,377.5C 156.535,373.033 152.702,368.867 148.5,365C 131.904,354.405 118.738,340.572 109,323.5C 96.0903,279.294 107.257,242.46 142.5,213C 169.617,194.469 199.617,187.469 232.5,192C 240.991,193.365 249.325,195.365 257.5,198C 258.574,198.739 259.241,199.739 259.5,201C 252.741,221.207 245.908,241.374 239,261.5C 238.439,262.022 237.772,262.355 237,262.5C 217.121,252.861 196.621,251.027 175.5,257C 164.509,263.01 160.342,272.177 163,284.5C 164.882,289.044 167.549,293.044 171,296.5C 188.838,308.996 205.504,322.996 221,338.5C 234.423,356.254 239.756,376.254 237,398.5C 234.562,421.541 225.062,441.041 208.5,457C 196.417,466.373 182.751,471.873 167.5,473.5 Z"/></g>
<g><path style="opacity:0.97" fill="#000000" d="M 1134.5,215.5 C 1189.02,213.303 1222.19,238.636 1234,291.5C 1240.08,343.878 1226.08,389.878 1192,429.5C 1158.06,463.191 1117.56,475.024 1070.5,465C 1035.73,454.005 1014.89,430.505 1008,394.5C 1001.59,339.753 1016.75,292.253 1053.5,252C 1076.37,230.565 1103.37,218.399 1134.5,215.5 Z M 1130.5,269.5 C 1145.25,269.284 1155.41,275.951 1161,289.5C 1164.92,304.704 1165.25,320.038 1162,335.5C 1158.64,358.87 1150.31,380.203 1137,399.5C 1124.27,414.977 1109.1,418.144 1091.5,409C 1081.22,398.329 1076.55,385.496 1077.5,370.5C 1078.01,342.14 1085.51,315.807 1100,291.5C 1107.28,280.043 1117.44,272.709 1130.5,269.5 Z"/></g>
<g><path style="opacity:0.969" fill="#000000" d="M 1401.5,215.5 C 1439.03,214.339 1463.2,231.672 1474,267.5C 1484.84,322.997 1473.84,373.663 1441,419.5C 1409.3,460.18 1368.13,475.346 1317.5,465C 1313.44,463.552 1309.6,461.718 1306,459.5C 1299.62,493.063 1293.12,526.563 1286.5,560C 1263.5,560.5 1240.5,560.667 1217.5,560.5C 1233.55,472.756 1250.05,385.089 1267,297.5C 1271.16,271.536 1274.99,245.536 1278.5,219.5C 1298.84,219.333 1319.17,219.5 1339.5,220C 1339.96,220.414 1340.29,220.914 1340.5,221.5C 1338.84,232.483 1337.67,243.483 1337,254.5C 1353.05,232.397 1374.55,219.397 1401.5,215.5 Z M 1377.5,273.5 C 1394.04,274.875 1403.21,283.875 1405,300.5C 1406.84,335.32 1397.84,366.987 1378,395.5C 1368.97,406.887 1357.3,413.553 1343,415.5C 1335.38,415.403 1328.21,413.569 1321.5,410C 1318.94,408.938 1317.27,407.104 1316.5,404.5C 1320.75,378.726 1325.59,353.059 1331,327.5C 1334.81,314.884 1340.48,303.217 1348,292.5C 1355.71,282.574 1365.55,276.241 1377.5,273.5 Z"/></g>
<g><path style="opacity:0.964" fill="#000000" d="M 684.5,216.5 C 706.323,215.165 727.656,217.665 748.5,224C 750.746,225.039 752.913,226.206 755,227.5C 755.667,229.167 755.667,230.833 755,232.5C 749.701,247.366 744.868,262.366 740.5,277.5C 731.581,274.853 722.581,272.353 713.5,270C 703.823,268.198 694.156,268.198 684.5,270C 666.233,276.43 662.233,287.763 672.5,304C 684.896,312.726 697.563,321.06 710.5,329C 741.26,352.666 749.093,382.499 734,418.5C 723.766,438.706 707.933,452.54 686.5,460C 650.122,472.036 614.122,471.036 578.5,457C 574.75,454.922 571.083,452.756 567.5,450.5C 572.667,435.5 577.833,420.5 583,405.5C 583.523,403.777 584.523,402.444 586,401.5C 602.892,409.741 620.725,414.408 639.5,415.5C 656.549,417.343 666.549,410.01 669.5,393.5C 668.27,383.876 663.603,376.376 655.5,371C 638.347,362.188 623.18,350.688 610,336.5C 593.422,312.429 592.089,287.429 606,261.5C 617.462,242.839 633.629,230.006 654.5,223C 664.431,219.854 674.431,217.688 684.5,216.5 Z"/></g>
<g><path style="opacity:0.967" fill="#000000" d="M 1524.5,221.5 C 1547.83,221.5 1571.17,221.5 1594.5,221.5C 1579.04,302.135 1563.71,382.802 1548.5,463.5C 1525.17,463.5 1501.83,463.5 1478.5,463.5C 1493.53,382.737 1508.86,302.07 1524.5,221.5 Z"/></g>
<g><path style="opacity:0.967" fill="#000000" d="M 1999.5,221.5 C 1999.5,223.167 1999.5,224.833 1999.5,226.5C 1971.34,284.8 1943.84,343.467 1917,402.5C 1897.72,443.076 1874.39,481.076 1847,516.5C 1825.09,542.923 1797.92,561.59 1765.5,572.5C 1763.83,572.5 1762.17,572.5 1760.5,572.5C 1754.17,553.184 1747.84,533.851 1741.5,514.5C 1764.62,506.231 1784.79,493.231 1802,475.5C 1808.15,468.023 1813.48,460.023 1818,451.5C 1818.17,449.667 1818.33,447.833 1818.5,446C 1805.04,371.122 1791.37,296.289 1777.5,221.5C 1801.83,221.5 1826.17,221.5 1850.5,221.5C 1856.1,275.284 1861.93,328.951 1868,382.5C 1886.55,328.676 1906.39,275.342 1927.5,222.5C 1951.49,221.5 1975.49,221.167 1999.5,221.5 Z"/></g>
<g><path style="opacity:1" fill="#deebc6" d="M 136.5,472.5 C 146.817,473.226 157.15,473.56 167.5,473.5C 163.849,474.165 160.015,474.499 156,474.5C 149.275,474.6 142.775,473.934 136.5,472.5 Z"/></g>
</svg>
