<?xml version="1.0" encoding="UTF-8"?>
<!DOCTYPE svg PUBLIC "-//W3C//DTD SVG 1.1//EN" "http://www.w3.org/Graphics/SVG/1.1/DTD/svg11.dtd">
<svg xmlns="http://www.w3.org/2000/svg" version="1.1" width="2000px" height="343px" style="shape-rendering:geometricPrecision; text-rendering:geometricPrecision; image-rendering:optimizeQuality; fill-rule:evenodd; clip-rule:evenodd" xmlns:xlink="http://www.w3.org/1999/xlink">
<g><path style="opacity:0.993" fill="#23a566" d="M 12.5,-0.5 C 59.1667,-0.5 105.833,-0.5 152.5,-0.5C 152.333,25.8354 152.5,52.1688 153,78.5C 154.726,85.3862 158.559,90.7195 164.5,94.5C 191.61,121.282 219.276,147.282 247.5,172.5C 247.667,224.168 247.5,275.834 247,327.5C 246.333,329.5 245.667,331.5 245,333.5C 243.287,334.878 241.953,336.545 241,338.5C 238.686,339.733 236.519,341.067 234.5,342.5C 160.167,342.5 85.8333,342.5 11.5,342.5C 5.79453,339.187 1.79453,334.854 -0.5,329.5C -0.5,223.833 -0.5,118.167 -0.5,12.5C 2.83333,7.16667 7.16667,2.83333 12.5,-0.5 Z"/></g>
<g><path style="opacity:1" fill="#8ccfaf" d="M 152.5,-0.5 C 153.167,-0.5 153.833,-0.5 154.5,-0.5C 160.833,6.16667 167.167,12.8333 173.5,19.5C 176.342,24.8549 180.175,29.5215 185,33.5C 185.383,32.944 185.883,32.6107 186.5,32.5C 206.946,52.9426 226.946,73.6092 246.5,94.5C 219.306,95.8116 191.973,95.8116 164.5,94.5C 158.559,90.7195 154.726,85.3862 153,78.5C 152.5,52.1688 152.333,25.8354 152.5,-0.5 Z"/></g>
<g><path style="opacity:0.948" fill="#777778" d="M 449.5,27.5 C 480.226,24.9295 507.559,33.0962 531.5,52C 533.557,53.7194 535.224,55.7194 536.5,58C 529.645,65.1885 522.479,72.0219 515,78.5C 489.708,57.4748 461.541,52.6415 430.5,64C 391.315,83.5426 376.815,114.709 387,157.5C 400.813,191.424 426.147,208.758 463,209.5C 486.615,209.355 505.948,200.355 521,182.5C 526.326,174.018 529.826,164.851 531.5,155C 507.502,154.5 483.502,154.333 459.5,154.5C 459.181,144.251 459.514,134.084 460.5,124C 494.498,123.5 528.498,123.333 562.5,123.5C 569.849,179.322 547.183,216.822 494.5,236C 444.083,247.527 402.249,233.694 369,194.5C 344.036,156.64 342.703,117.973 365,78.5C 385.806,49.3453 413.973,32.3453 449.5,27.5 Z"/></g>
<g><path style="opacity:0.898" fill="#83b79e" d="M 173.5,19.5 C 178.167,23.5 182.5,27.8333 186.5,32.5C 185.883,32.6107 185.383,32.944 185,33.5C 180.175,29.5215 176.342,24.8549 173.5,19.5 Z"/></g>
<g><path style="opacity:0.933" fill="#777778" d="M 1032.5,35.5 C 1043.17,35.5 1053.83,35.5 1064.5,35.5C 1064.5,102.5 1064.5,169.5 1064.5,236.5C 1053.92,236.82 1043.42,236.487 1033,235.5C 1032.5,168.834 1032.33,102.167 1032.5,35.5 Z"/></g>
<g><path style="opacity:0.933" fill="#777778" d="M 1318.5,56.5 C 1341.72,54.2917 1360.89,61.9583 1376,79.5C 1379.43,83.8571 1381.93,88.6905 1383.5,94C 1376.2,97.9018 1368.7,101.402 1361,104.5C 1354.75,89.3682 1343.41,81.3682 1327,80.5C 1316.87,80.8709 1308.21,84.5376 1301,91.5C 1293.07,103.291 1294.57,113.791 1305.5,123C 1324.17,131 1342.83,139 1361.5,147C 1385.95,162.108 1394.12,183.608 1386,211.5C 1376.75,231.067 1361.25,242.234 1339.5,245C 1301.86,248.816 1276.86,232.983 1264.5,197.5C 1265.88,195.295 1267.88,193.795 1270.5,193C 1276.17,190.833 1281.83,188.667 1287.5,186.5C 1296.21,214.354 1314.88,225.52 1343.5,220C 1362.58,211.35 1367.74,197.517 1359,178.5C 1352.42,171.458 1344.59,166.291 1335.5,163C 1321.05,158.44 1307.05,152.773 1293.5,146C 1273.35,132.517 1266.52,114.017 1273,90.5C 1282.06,70.9394 1297.22,59.6061 1318.5,56.5 Z"/></g>
<g><path style="opacity:0.92" fill="#777778" d="M 1410.5,60.5 C 1418.83,60.5 1427.17,60.5 1435.5,60.5C 1435.33,84.169 1435.5,107.836 1436,131.5C 1453.24,112.735 1473.74,108.235 1497.5,118C 1512.27,126.47 1520.11,139.304 1521,156.5C 1521.5,184.831 1521.67,213.165 1521.5,241.5C 1513.17,241.5 1504.83,241.5 1496.5,241.5C 1496.93,212.804 1496.43,184.137 1495,155.5C 1491.07,142.441 1482.23,136.108 1468.5,136.5C 1451.77,138.053 1441.27,147.053 1437,163.5C 1435.57,189.466 1435.07,215.466 1435.5,241.5C 1427.17,241.5 1418.83,241.5 1410.5,241.5C 1410.5,181.167 1410.5,120.833 1410.5,60.5 Z"/></g>
<g><path style="opacity:0.921" fill="#777778" d="M 1826.5,80.5 C 1834.83,80.5 1843.17,80.5 1851.5,80.5C 1851.5,92.8333 1851.5,105.167 1851.5,117.5C 1861.5,117.5 1871.5,117.5 1881.5,117.5C 1881.5,125.167 1881.5,132.833 1881.5,140.5C 1871.5,140.5 1861.5,140.5 1851.5,140.5C 1851.33,163.169 1851.5,185.836 1852,208.5C 1855.16,218.666 1861.99,222.5 1872.5,220C 1874.02,218.991 1875.69,218.491 1877.5,218.5C 1879.53,225.41 1881.86,232.243 1884.5,239C 1869.24,246.78 1854.24,246.113 1839.5,237C 1831.78,231.057 1827.61,223.223 1827,213.5C 1826.5,189.169 1826.33,164.836 1826.5,140.5C 1819.25,140.813 1812.08,140.48 1805,139.5C 1804.5,132.174 1804.33,124.841 1804.5,117.5C 1811.83,117.5 1819.17,117.5 1826.5,117.5C 1826.5,105.167 1826.5,92.8333 1826.5,80.5 Z"/></g>
<g><path style="opacity:1" fill="#1c8f5a" d="M 164.5,94.5 C 191.973,95.8116 219.306,95.8116 246.5,94.5C 247.498,120.328 247.831,146.328 247.5,172.5C 219.276,147.282 191.61,121.282 164.5,94.5 Z"/></g>
<g><path style="opacity:0.946" fill="#777778" d="M 638.5,102.5 C 674.202,100.919 699.369,116.253 714,148.5C 723.875,189.618 709.708,218.784 671.5,236C 647.045,243.756 624.045,240.756 602.5,227C 575.11,204.28 567.61,176.114 580,142.5C 592.506,118.838 612.006,105.504 638.5,102.5 Z M 639.5,131.5 C 670.552,131.721 685.386,147.387 684,178.5C 680.473,196.694 669.64,207.527 651.5,211C 624.122,211.463 609.122,197.963 606.5,170.5C 608.596,149.753 619.596,136.753 639.5,131.5 Z"/></g>
<g><path style="opacity:0.945" fill="#777778" d="M 790.5,102.5 C 823.526,100.59 848.026,113.923 864,142.5C 877.546,180.546 867.379,210.38 833.5,232C 798.204,247.295 767.371,241.128 741,213.5C 724.866,190.206 722.532,165.54 734,139.5C 746.664,117.751 765.497,105.418 790.5,102.5 Z M 792.5,131.5 C 814.485,130.068 828.985,139.735 836,160.5C 840.355,186.627 829.855,203.46 804.5,211C 782.82,212.413 768.32,202.913 761,182.5C 756.34,155.774 766.84,138.774 792.5,131.5 Z"/></g>
<g><path style="opacity:0.948" fill="#777778" d="M 940.5,102.5 C 957.579,101.138 972.413,106.138 985,117.5C 985.499,113.848 985.665,110.182 985.5,106.5C 995.833,106.5 1006.17,106.5 1016.5,106.5C 1016.67,150.501 1016.5,194.501 1016,238.5C 1012.96,273.13 994.465,293.63 960.5,300C 927.099,304.05 902.266,291.55 886,262.5C 885.51,261.207 885.343,259.873 885.5,258.5C 894.467,255.603 903.3,252.27 912,248.5C 915.548,252.558 918.881,256.891 922,261.5C 935.813,272.94 950.98,275.107 967.5,268C 978.585,261.014 984.418,250.847 985,237.5C 985.667,233.167 985.667,228.833 985,224.5C 978.259,232.202 969.759,237.035 959.5,239C 921.824,242.415 895.991,226.582 882,191.5C 873.749,150.885 888.583,122.385 926.5,106C 931.341,105.005 936.008,103.838 940.5,102.5 Z M 944.5,131.5 C 970.954,131.616 985.288,144.95 987.5,171.5C 985.326,198.182 970.992,211.349 944.5,211C 926.893,207.06 916.393,196.227 913,178.5C 910.681,154.023 921.181,138.356 944.5,131.5 Z"/></g>
<g><path style="opacity:0.943" fill="#777778" d="M 1135.5,102.5 C 1164.93,100.798 1186.77,112.798 1201,138.5C 1203.17,143.505 1205.34,148.505 1207.5,153.5C 1207.18,154.647 1206.52,155.481 1205.5,156C 1175.12,168.071 1144.78,180.238 1114.5,192.5C 1122.49,207.12 1134.82,213.287 1151.5,211C 1164.18,209.151 1174.18,202.984 1181.5,192.5C 1189.8,197.637 1197.97,202.97 1206,208.5C 1200.98,217.525 1193.81,224.691 1184.5,230C 1156.38,244.712 1129.04,243.378 1102.5,226C 1075.82,202.432 1068.98,173.932 1082,140.5C 1093.52,118.832 1111.36,106.165 1135.5,102.5 Z M 1140.5,130.5 C 1151.51,129.777 1160.68,133.443 1168,141.5C 1168.67,142.167 1168.67,142.833 1168,143.5C 1148.56,151.593 1129.06,159.593 1109.5,167.5C 1108.81,152.054 1115.48,140.887 1129.5,134C 1133.33,132.966 1137,131.8 1140.5,130.5 Z"/></g>
<g><path style="opacity:0.934" fill="#777778" d="M 1590.5,113.5 C 1627.26,110.112 1650.43,126.112 1660,161.5C 1661.07,169.131 1661.57,176.798 1661.5,184.5C 1629.16,184.333 1596.83,184.5 1564.5,185C 1567.38,208.045 1580.38,220.878 1603.5,223.5C 1611.58,223.056 1618.91,220.556 1625.5,216C 1630.44,211.404 1634.94,206.57 1639,201.5C 1646.32,204.57 1653.15,208.237 1659.5,212.5C 1651.04,227.921 1638.37,238.421 1621.5,244C 1582.57,251.658 1556.07,237.158 1542,200.5C 1534.6,170.725 1542.1,145.559 1564.5,125C 1572.44,119.307 1581.1,115.473 1590.5,113.5 Z M 1594.5,136.5 C 1609.7,134.528 1621.87,139.528 1631,151.5C 1632.9,155.203 1634.4,159.037 1635.5,163C 1612.83,163.833 1590.16,163.666 1567.5,162.5C 1571.34,148.323 1580.34,139.656 1594.5,136.5 Z"/></g>
<g><path style="opacity:0.934" fill="#777778" d="M 1725.5,113.5 C 1763.65,109.847 1787.15,126.513 1796,163.5C 1797.16,170.453 1797.66,177.453 1797.5,184.5C 1765.16,184.167 1732.83,184.5 1700.5,185.5C 1703.58,208.085 1716.42,220.752 1739,223.5C 1747.74,223.028 1755.57,220.195 1762.5,215C 1766.37,210.3 1770.37,205.8 1774.5,201.5C 1781.94,204.386 1788.94,208.053 1795.5,212.5C 1778.03,240.393 1753.03,250.893 1720.5,244C 1700.16,237.661 1686.33,224.494 1679,204.5C 1670.89,178.088 1675.22,154.088 1692,132.5C 1701.43,122.877 1712.59,116.543 1725.5,113.5 Z M 1730.5,136.5 C 1746.67,134.506 1759.17,140.172 1768,153.5C 1769.15,156.768 1769.98,160.101 1770.5,163.5C 1747.83,163.667 1725.16,163.5 1702.5,163C 1706.9,148.762 1716.23,139.929 1730.5,136.5 Z"/></g>
<g><path style="opacity:0.927" fill="#777778" d="M 1999.5,198.5 C 1999.5,204.167 1999.5,209.833 1999.5,215.5C 1991.87,232.839 1978.53,242.672 1959.5,245C 1935.89,248.471 1916.73,240.971 1902,222.5C 1899.08,218.249 1897.25,213.582 1896.5,208.5C 1903.34,205.941 1910.17,203.275 1917,200.5C 1921.44,208.275 1927.28,214.775 1934.5,220C 1945.66,224.82 1956.66,224.487 1967.5,219C 1976.76,211.006 1976.43,203.339 1966.5,196C 1951.56,191.13 1936.56,186.463 1921.5,182C 1900.31,171.444 1894.48,155.277 1904,133.5C 1912.2,122.81 1923.03,116.31 1936.5,114C 1959,110.176 1977.83,116.676 1993,133.5C 1995.62,136.729 1997.12,140.396 1997.5,144.5C 1990.42,146.869 1983.42,149.536 1976.5,152.5C 1968.04,139.443 1956.04,134.276 1940.5,137C 1928.68,138.775 1924.18,145.275 1927,156.5C 1930.08,159.293 1933.58,161.46 1937.5,163C 1953.09,165.865 1968.09,170.531 1982.5,177C 1990.69,182.242 1996.36,189.409 1999.5,198.5 Z"/></g>
<g><path style="opacity:1" fill="#8dcfaf" d="M 187.5,168.5 C 187.167,168.5 186.833,168.5 186.5,168.5C 144.167,168.5 101.833,168.5 59.5,168.5C 59.5,205.167 59.5,241.833 59.5,278.5C 59.5,278.833 59.5,279.167 59.5,279.5C 58.5015,242.337 58.1682,205.004 58.5,167.5C 101.67,167.168 144.67,167.501 187.5,168.5 Z"/></g>
<g><path style="opacity:1" fill="#fdfefd" d="M 186.5,168.5 C 186.5,205.167 186.5,241.833 186.5,278.5C 144.167,278.5 101.833,278.5 59.5,278.5C 59.5,241.833 59.5,205.167 59.5,168.5C 101.833,168.5 144.167,168.5 186.5,168.5 Z"/></g>
<g><path style="opacity:1" fill="#25a567" d="M 171.5,184.5 C 171.5,190.833 171.5,197.167 171.5,203.5C 158.167,203.5 144.833,203.5 131.5,203.5C 131.5,197.167 131.5,190.833 131.5,184.5C 144.833,184.5 158.167,184.5 171.5,184.5 Z"/></g>
<g><path style="opacity:1" fill="#99d4b7" d="M 74.5,183.5 C 88.1667,183.5 101.833,183.5 115.5,183.5C 115.5,190.5 115.5,197.5 115.5,204.5C 101.833,204.5 88.1667,204.5 74.5,204.5C 74.5,197.5 74.5,190.5 74.5,183.5 Z"/></g>
<g><path style="opacity:1" fill="#24a566" d="M 75.5,184.5 C 88.5,184.5 101.5,184.5 114.5,184.5C 114.5,190.833 114.5,197.167 114.5,203.5C 101.5,203.5 88.5,203.5 75.5,203.5C 75.5,197.167 75.5,190.833 75.5,184.5 Z"/></g>
<g><path style="opacity:1" fill="#abdcc5" d="M 171.5,184.5 C 158.167,184.5 144.833,184.5 131.5,184.5C 131.5,190.833 131.5,197.167 131.5,203.5C 144.833,203.5 158.167,203.5 171.5,203.5C 158.01,204.496 144.344,204.829 130.5,204.5C 130.5,197.5 130.5,190.5 130.5,183.5C 144.344,183.171 158.01,183.504 171.5,184.5 Z"/></g>
<g><path style="opacity:1" fill="#7ecaa5" d="M 114.5,234.5 C 114.5,228.5 114.5,222.5 114.5,216.5C 101.5,216.5 88.5,216.5 75.5,216.5C 75.5,222.5 75.5,228.5 75.5,234.5C 74.5098,228.355 74.1765,222.022 74.5,215.5C 88.1667,215.5 101.833,215.5 115.5,215.5C 115.823,222.022 115.49,228.355 114.5,234.5 Z"/></g>
<g><path style="opacity:1" fill="#87ceab" d="M 171.5,216.5 C 158.167,216.5 144.833,216.5 131.5,216.5C 131.5,222.5 131.5,228.5 131.5,234.5C 130.51,228.355 130.177,222.022 130.5,215.5C 144.344,215.171 158.01,215.504 171.5,216.5 Z"/></g>
<g><path style="opacity:1" fill="#25a567" d="M 114.5,234.5 C 101.5,234.5 88.5,234.5 75.5,234.5C 75.5,228.5 75.5,222.5 75.5,216.5C 88.5,216.5 101.5,216.5 114.5,216.5C 114.5,222.5 114.5,228.5 114.5,234.5 Z"/></g>
<g><path style="opacity:1" fill="#24a566" d="M 171.5,216.5 C 171.5,222.5 171.5,228.5 171.5,234.5C 158.167,234.5 144.833,234.5 131.5,234.5C 131.5,228.5 131.5,222.5 131.5,216.5C 144.833,216.5 158.167,216.5 171.5,216.5 Z"/></g>
<g><path style="opacity:1" fill="#2aa769" d="M 74.5,246.5 C 88.1667,246.5 101.833,246.5 115.5,246.5C 115.5,252.167 115.5,257.833 115.5,263.5C 101.833,263.5 88.1667,263.5 74.5,263.5C 74.5,257.833 74.5,252.167 74.5,246.5 Z"/></g>
<g><path style="opacity:1" fill="#25a567" d="M 131.5,246.5 C 144.833,246.5 158.167,246.5 171.5,246.5C 171.5,252.167 171.5,257.833 171.5,263.5C 158.167,263.5 144.833,263.5 131.5,263.5C 131.5,257.833 131.5,252.167 131.5,246.5 Z"/></g>
<g><path style="opacity:1" fill="#ceeadc" d="M 131.5,246.5 C 131.5,252.167 131.5,257.833 131.5,263.5C 144.833,263.5 158.167,263.5 171.5,263.5C 158.01,264.496 144.344,264.829 130.5,264.5C 130.177,258.31 130.51,252.31 131.5,246.5 Z"/></g>
<g><path style="opacity:1" fill="#d3eddf" d="M 186.5,168.5 C 186.833,168.5 187.167,168.5 187.5,168.5C 187.5,205.5 187.5,242.5 187.5,279.5C 144.833,279.5 102.167,279.5 59.5,279.5C 59.5,279.167 59.5,278.833 59.5,278.5C 101.833,278.5 144.167,278.5 186.5,278.5C 186.5,241.833 186.5,205.167 186.5,168.5 Z"/></g>
</svg>
