<?xml version="1.0" encoding="UTF-8"?>
<!DOCTYPE svg PUBLIC "-//W3C//DTD SVG 1.1//EN" "http://www.w3.org/Graphics/SVG/1.1/DTD/svg11.dtd">
<svg xmlns="http://www.w3.org/2000/svg" version="1.1" width="2000px" height="450px" style="shape-rendering:geometricPrecision; text-rendering:geometricPrecision; image-rendering:optimizeQuality; fill-rule:evenodd; clip-rule:evenodd" xmlns:xlink="http://www.w3.org/1999/xlink">
<g><path style="opacity:0.962" fill="#000000" d="M 1107.5,-0.5 C 1118.5,-0.5 1129.5,-0.5 1140.5,-0.5C 1147.79,0.996861 1155.12,2.83019 1162.5,5C 1164.48,5.48066 1165.81,6.64733 1166.5,8.5C 1162.82,22.8769 1158.99,37.2102 1155,51.5C 1154.48,52.5156 1153.65,53.1822 1152.5,53.5C 1141.23,48.9844 1129.56,47.4844 1117.5,49C 1102.74,52.1097 1095.91,61.2763 1097,76.5C 1096.33,89.1667 1096.33,101.833 1097,114.5C 1114.09,115.492 1131.26,115.825 1148.5,115.5C 1148.5,132.167 1148.5,148.833 1148.5,165.5C 1131.17,165.5 1113.83,165.5 1096.5,165.5C 1096.5,228.833 1096.5,292.167 1096.5,355.5C 1078.17,355.5 1059.83,355.5 1041.5,355.5C 1041.5,292.167 1041.5,228.833 1041.5,165.5C 1031.16,165.666 1020.83,165.5 1010.5,165C 1009.84,156.909 1009.51,148.742 1009.5,140.5C 1009.51,132.258 1009.84,124.091 1010.5,116C 1020.83,115.5 1031.16,115.334 1041.5,115.5C 1041.12,98.132 1041.62,80.7987 1043,63.5C 1049.82,27.1755 1071.32,5.84221 1107.5,-0.5 Z"/></g>
<g><path style="opacity:0.962" fill="#000000" d="M -0.5,19.5 C 83.8333,19.5 168.167,19.5 252.5,19.5C 252.5,37.5 252.5,55.5 252.5,73.5C 220.167,73.5 187.833,73.5 155.5,73.5C 155.5,167.5 155.5,261.5 155.5,355.5C 136.167,355.5 116.833,355.5 97.5,355.5C 97.5,261.5 97.5,167.5 97.5,73.5C 64.8333,73.5 32.1667,73.5 -0.5,73.5C -0.5,55.5 -0.5,37.5 -0.5,19.5 Z"/></g>
<g><path style="opacity:0.958" fill="#000000" d="M 560.5,449.5 C 542.5,449.5 524.5,449.5 506.5,449.5C 505.338,338.54 505.171,227.54 506,116.5C 524.093,115.341 542.26,115.175 560.5,116C 561.321,126.09 561.821,136.256 562,146.5C 576.972,123.073 598.472,111.406 626.5,111.5C 671.897,113.404 703.063,135.404 720,177.5C 733.775,219.353 732.442,260.687 716,301.5C 692.541,344.15 656.375,362.984 607.5,358C 593.137,355.315 580.137,349.648 568.5,341C 565.96,338.795 563.793,336.295 562,333.5C 561.827,372.238 561.327,410.904 560.5,449.5 Z M 601.5,161.5 C 640.583,158.128 663.417,175.795 670,214.5C 672.96,234.901 671.293,254.901 665,274.5C 651.025,304.567 627.859,315.4 595.5,307C 583.838,302.337 575.005,294.504 569,283.5C 559.278,258.566 556.944,232.899 562,206.5C 566.432,183.524 579.598,168.524 601.5,161.5 Z"/></g>
<g><path style="opacity:0.959" fill="#000000" d="M 875.5,111.5 C 908.739,109.509 935.905,121.176 957,146.5C 973.835,171.536 974.835,197.202 960,223.5C 949.644,237.095 936.478,246.928 920.5,253C 911.078,256.772 901.411,259.772 891.5,262C 871.609,265.505 851.609,268.172 831.5,270C 843.595,301.041 866.262,314.041 899.5,309C 916.229,306.302 930.895,299.302 943.5,288C 947.711,283.453 952.211,279.286 957,275.5C 958.605,276.101 959.938,277.101 961,278.5C 968.589,289.344 976.422,300.011 984.5,310.5C 954.644,347.081 915.977,362.915 868.5,358C 815.183,348.686 782.683,317.519 771,264.5C 761.263,213.719 775.096,170.885 812.5,136C 831.084,121.638 852.084,113.472 875.5,111.5 Z M 872.5,161.5 C 880.174,161.334 887.841,161.5 895.5,162C 914.555,167.943 921.055,180.443 915,199.5C 908.398,211.086 898.565,218.586 885.5,222C 866.079,226.815 846.079,229.648 825.5,230.5C 825.778,212.031 831.278,195.365 842,180.5C 850.443,171.205 860.61,164.872 872.5,161.5 Z"/></g>
<g><path style="opacity:0.962" fill="#000000" d="M 1278.5,111.5 C 1324.2,108.444 1361.03,124.777 1389,160.5C 1414.15,200.755 1418.15,243.088 1401,287.5C 1376.77,337.043 1336.94,360.543 1281.5,358C 1224.52,351.354 1189.02,320.187 1175,264.5C 1166.55,223.757 1174.55,186.757 1199,153.5C 1220.11,129.215 1246.61,115.215 1278.5,111.5 Z M 1278.5,161.5 C 1321.08,157.916 1345.58,177.25 1352,219.5C 1355.27,243.838 1350.6,266.505 1338,287.5C 1320.01,307.71 1297.84,314.21 1271.5,307C 1255.48,300.982 1243.98,290.149 1237,274.5C 1226.7,247.017 1227.03,219.684 1238,192.5C 1246.86,176 1260.36,165.666 1278.5,161.5 Z"/></g>
<g><path style="opacity:0.961" fill="#000000" d="M 1580.5,111.5 C 1590.46,111.108 1600.29,111.775 1610,113.5C 1608.22,131.861 1605.89,150.194 1603,168.5C 1602.75,169.624 1602.25,170.624 1601.5,171.5C 1564.28,160.031 1537.78,172.031 1522,207.5C 1517.34,220.464 1514.34,233.797 1513,247.5C 1512.5,283.498 1512.33,319.498 1512.5,355.5C 1494.17,355.5 1475.83,355.5 1457.5,355.5C 1457.5,275.5 1457.5,195.5 1457.5,115.5C 1475.5,115.333 1493.5,115.5 1511.5,116C 1512.33,132.093 1512.83,148.259 1513,164.5C 1527.21,136.105 1549.71,118.438 1580.5,111.5 Z"/></g>
<g><path style="opacity:0.959" fill="#000000" d="M 1999.5,179.5 C 1999.5,238.167 1999.5,296.833 1999.5,355.5C 1981.17,355.5 1962.83,355.5 1944.5,355.5C 1944.67,306.166 1944.5,256.832 1944,207.5C 1943.7,196.03 1941.36,185.03 1937,174.5C 1930.63,164.814 1921.63,160.481 1910,161.5C 1897.3,161.604 1886.13,165.77 1876.5,174C 1862.86,187.445 1854.02,203.612 1850,222.5C 1848.63,229.446 1847.63,236.446 1847,243.5C 1846.29,280.84 1846.45,318.173 1847.5,355.5C 1828.83,355.5 1810.17,355.5 1791.5,355.5C 1791.67,306.499 1791.5,257.499 1791,208.5C 1790.95,197.134 1788.95,186.134 1785,175.5C 1778.56,165.28 1769.23,160.614 1757,161.5C 1745.54,161.211 1735.37,164.711 1726.5,172C 1707.17,190.624 1696.67,213.457 1695,240.5C 1694.5,278.832 1694.33,317.165 1694.5,355.5C 1675.92,355.826 1657.42,355.493 1639,354.5C 1638.33,275.167 1638.33,195.833 1639,116.5C 1657.42,115.507 1675.92,115.174 1694.5,115.5C 1694.33,131.17 1694.5,146.837 1695,162.5C 1710.96,131.539 1736.3,114.539 1771,111.5C 1808.39,113.513 1833.06,132.18 1845,167.5C 1865.47,124.007 1899.3,106.507 1946.5,115C 1976.82,126.174 1994.49,147.674 1999.5,179.5 Z"/></g>
<g><path style="opacity:0.961" fill="#000000" d="M 297.5,449.5 C 287.5,449.5 277.5,449.5 267.5,449.5C 246.276,445.136 228.109,435.136 213,419.5C 212.333,418.833 212.333,418.167 213,417.5C 222.358,405.642 231.525,393.642 240.5,381.5C 248.264,389.772 257.264,396.272 267.5,401C 275.023,404.571 282.357,404.237 289.5,400C 293.997,395.868 298.164,391.368 302,386.5C 308.948,374.938 315.115,362.938 320.5,350.5C 286.686,272.383 252.686,194.383 218.5,116.5C 239.833,115.167 261.167,115.167 282.5,116.5C 305.098,171.126 327.598,225.793 350,280.5C 370.333,225.5 390.667,170.5 411,115.5C 431.424,114.507 451.924,114.173 472.5,114.5C 472.66,116.199 472.494,117.866 472,119.5C 433.057,211.718 394.391,304.052 356,396.5C 345.078,423.935 325.578,441.601 297.5,449.5 Z"/></g>
</svg>
