<?xml version="1.0" encoding="UTF-8"?>
<!DOCTYPE svg PUBLIC "-//W3C//DTD SVG 1.1//EN" "http://www.w3.org/Graphics/SVG/1.1/DTD/svg11.dtd">
<svg xmlns="http://www.w3.org/2000/svg" version="1.1" width="1716px" height="430px" style="shape-rendering:geometricPrecision; text-rendering:geometricPrecision; image-rendering:optimizeQuality; fill-rule:evenodd; clip-rule:evenodd" xmlns:xlink="http://www.w3.org/1999/xlink">
<g><path style="opacity:0.995" fill="#f15a29" d="M 184.5,-0.5 C 192.833,-0.5 201.167,-0.5 209.5,-0.5C 219.584,1.47581 229.251,4.97581 238.5,10C 280.829,34.1623 322.829,58.829 364.5,84C 379.783,96.7278 389.283,112.894 393,132.5C 394.13,159.64 394.63,186.807 394.5,214C 394.63,241.193 394.13,268.36 393,295.5C 386.596,323.904 370.43,344.738 344.5,358C 305.833,380 267.167,402 228.5,424C 222.469,426.168 216.469,428.001 210.5,429.5C 201.167,429.5 191.833,429.5 182.5,429.5C 173.548,427.457 164.882,424.29 156.5,420C 133.605,406.726 110.938,393.226 88.5,379.5C 88.3334,354.164 88.5,328.831 89,303.5C 121.256,322.38 153.756,340.88 186.5,359C 198.347,361.958 209.347,359.958 219.5,353C 250.833,334.667 282.167,316.333 313.5,298C 321.138,292.378 325.305,284.878 326,275.5C 326.667,234.833 326.667,194.167 326,153.5C 323.594,142.092 317.094,133.925 306.5,129C 277.167,112 247.833,95 218.5,78C 210.199,72.7852 201.199,70.4519 191.5,71C 185.264,73.1175 179.264,75.7841 173.5,79C 141.239,97.6018 109.239,116.602 77.5,136C 69.0022,144.811 65.8355,155.311 68,167.5C 68.4799,173.432 70.4799,178.765 74,183.5C 78.5455,187.714 83.3788,191.547 88.5,195C 116.997,211.081 145.33,227.414 173.5,244C 179.264,247.216 185.264,249.883 191.5,252C 199.276,253.188 206.609,251.855 213.5,248C 235.004,235.414 256.671,223.08 278.5,211C 284.332,188.454 277.332,171.454 257.5,160C 238.605,148.929 219.605,138.095 200.5,127.5C 195.293,129.869 190.459,132.869 186,136.5C 182.753,143.73 184.586,149.23 191.5,153C 208.167,162.667 224.833,172.333 241.5,182C 245.783,185.445 249.117,189.612 251.5,194.5C 236.449,204.36 220.783,213.194 204.5,221C 197.566,223.267 190.899,222.6 184.5,219C 160.33,204.747 135.997,190.747 111.5,177C 107.049,174.217 102.883,171.05 99,167.5C 95.6667,163.5 95.6667,159.5 99,155.5C 101.22,152.979 103.72,150.812 106.5,149C 131.833,134.333 157.167,119.667 182.5,105C 192.978,98.9298 203.311,99.2631 213.5,106C 235.5,118.667 257.5,131.333 279.5,144C 290.31,149.473 297.477,157.973 301,169.5C 301.833,186.843 301.666,204.176 300.5,221.5C 273.162,238.171 245.495,254.338 217.5,270C 211.195,274.074 204.362,276.574 197,277.5C 189.638,276.574 182.805,274.074 176.5,270C 140.609,248.558 104.609,227.391 68.5,206.5C 68.44,205.957 68.1067,205.624 67.5,205.5C 66.5001,259.496 66.1667,313.496 66.5,367.5C 56.8607,362.012 47.194,356.512 37.5,351C 16.5459,336.88 3.87919,317.38 -0.5,292.5C -0.5,240.833 -0.5,189.167 -0.5,137.5C 3.44743,113.702 15.1141,94.5349 34.5,80C 78.0037,54.7471 121.67,29.7471 165.5,5C 171.828,2.6729 178.162,0.839566 184.5,-0.5 Z"/></g>
<g><path style="opacity:1" fill="#fffdfd" d="M 88.5,379.5 C 81.3293,375.749 74.3293,371.749 67.5,367.5C 67.1677,313.664 67.501,259.997 68.5,206.5C 104.609,227.391 140.609,248.558 176.5,270C 182.805,274.074 189.638,276.574 197,277.5C 204.362,276.574 211.195,274.074 217.5,270C 245.495,254.338 273.162,238.171 300.5,221.5C 301.666,204.176 301.833,186.843 301,169.5C 297.477,157.973 290.31,149.473 279.5,144C 257.5,131.333 235.5,118.667 213.5,106C 203.311,99.2631 192.978,98.9298 182.5,105C 157.167,119.667 131.833,134.333 106.5,149C 103.72,150.812 101.22,152.979 99,155.5C 95.6667,159.5 95.6667,163.5 99,167.5C 102.883,171.05 107.049,174.217 111.5,177C 135.997,190.747 160.33,204.747 184.5,219C 190.899,222.6 197.566,223.267 204.5,221C 220.783,213.194 236.449,204.36 251.5,194.5C 249.117,189.612 245.783,185.445 241.5,182C 224.833,172.333 208.167,162.667 191.5,153C 184.586,149.23 182.753,143.73 186,136.5C 190.459,132.869 195.293,129.869 200.5,127.5C 219.605,138.095 238.605,148.929 257.5,160C 277.332,171.454 284.332,188.454 278.5,211C 256.671,223.08 235.004,235.414 213.5,248C 206.609,251.855 199.276,253.188 191.5,252C 185.264,249.883 179.264,247.216 173.5,244C 145.33,227.414 116.997,211.081 88.5,195C 83.3788,191.547 78.5455,187.714 74,183.5C 70.4799,178.765 68.4799,173.432 68,167.5C 65.8355,155.311 69.0022,144.811 77.5,136C 109.239,116.602 141.239,97.6018 173.5,79C 179.264,75.7841 185.264,73.1175 191.5,71C 201.199,70.4519 210.199,72.7852 218.5,78C 247.833,95 277.167,112 306.5,129C 317.094,133.925 323.594,142.092 326,153.5C 326.667,194.167 326.667,234.833 326,275.5C 325.305,284.878 321.138,292.378 313.5,298C 282.167,316.333 250.833,334.667 219.5,353C 209.347,359.958 198.347,361.958 186.5,359C 153.756,340.88 121.256,322.38 89,303.5C 88.5,328.831 88.3334,354.164 88.5,379.5 Z"/></g>
<g><path style="opacity:0.965" fill="#3f3f3f" d="M 544.5,127.5 C 573.811,125.998 600.478,133.498 624.5,150C 628.592,153.048 632.258,156.548 635.5,160.5C 627.578,166.044 619.745,171.711 612,177.5C 599.582,163.707 584.082,155.874 565.5,154C 544.097,151.178 523.764,154.512 504.5,164C 489.601,172.95 481.101,186.117 479,203.5C 475.443,246.621 495.276,270.455 538.5,275C 556.982,277.077 574.982,275.077 592.5,269C 601.479,265.015 608.979,259.182 615,251.5C 615.5,245.175 615.666,238.842 615.5,232.5C 593.167,232.5 570.833,232.5 548.5,232.5C 548.5,224.167 548.5,215.833 548.5,207.5C 580.167,207.5 611.833,207.5 643.5,207.5C 643.667,225.17 643.5,242.836 643,260.5C 629.747,279.711 611.581,291.878 588.5,297C 558.001,304.108 528.001,302.442 498.5,292C 465.64,276.814 448.973,250.981 448.5,214.5C 449.739,172.441 470.405,145.275 510.5,133C 521.835,130.264 533.168,128.431 544.5,127.5 Z"/></g>
<g><path style="opacity:0.961" fill="#3f3f3f" d="M 680.5,132.5 C 720.501,132.333 760.501,132.5 800.5,133C 819.289,133.814 835.123,140.981 848,154.5C 858.691,171.214 860.358,188.881 853,207.5C 843.405,223.566 829.238,233.066 810.5,236C 827.951,255.74 845.285,275.573 862.5,295.5C 850.848,296.666 839.181,296.833 827.5,296C 810.833,276.667 794.167,257.333 777.5,238C 754.836,237.5 732.169,237.333 709.5,237.5C 709.5,257.167 709.5,276.833 709.5,296.5C 699.833,296.5 690.167,296.5 680.5,296.5C 680.5,241.833 680.5,187.167 680.5,132.5 Z M 709.5,158.5 C 740.502,158.333 771.502,158.5 802.5,159C 823.938,163.052 831.771,175.552 826,196.5C 821.205,204.661 814.039,209.495 804.5,211C 772.865,212.447 741.199,212.947 709.5,212.5C 709.5,194.5 709.5,176.5 709.5,158.5 Z"/></g>
<g><path style="opacity:0.969" fill="#3f3f3f" d="M 959.5,132.5 C 970.415,132.18 981.248,132.513 992,133.5C 1021.39,187.613 1050.22,241.946 1078.5,296.5C 1068.15,296.832 1057.81,296.499 1047.5,295.5C 1040.37,282.747 1033.37,269.913 1026.5,257C 992.162,256.167 957.828,256.333 923.5,257.5C 916.881,270.573 909.881,283.407 902.5,296C 892.151,296.832 881.817,296.666 871.5,295.5C 901.113,241.272 930.446,186.939 959.5,132.5 Z M 974.5,159.5 C 975.376,159.369 976.043,159.702 976.5,160.5C 988.578,184.324 1000.91,207.991 1013.5,231.5C 987.84,232.666 962.173,232.833 936.5,232C 949.575,208.016 962.241,183.85 974.5,159.5 Z"/></g>
<g><path style="opacity:0.964" fill="#3f3f3f" d="M 1063.5,132.5 C 1074.19,132.168 1084.85,132.501 1095.5,133.5C 1117.74,177.656 1140.24,221.656 1163,265.5C 1185.24,221.344 1207.74,177.344 1230.5,133.5C 1241.17,132.167 1251.83,132.167 1262.5,133.5C 1234.5,187.5 1206.5,241.5 1178.5,295.5C 1167.94,296.819 1157.44,296.819 1147,295.5C 1118.61,241.384 1090.78,187.05 1063.5,132.5 Z"/></g>
<g><path style="opacity:0.981" fill="#3f3f3f" d="M 1287.5,132.5 C 1297.17,132.5 1306.83,132.5 1316.5,132.5C 1316.5,187.167 1316.5,241.833 1316.5,296.5C 1306.83,296.5 1297.17,296.5 1287.5,296.5C 1287.5,241.833 1287.5,187.167 1287.5,132.5 Z"/></g>
<g><path style="opacity:0.977" fill="#404040" d="M 1344.5,132.5 C 1403.17,132.5 1461.83,132.5 1520.5,132.5C 1520.5,141.167 1520.5,149.833 1520.5,158.5C 1495.83,158.5 1471.17,158.5 1446.5,158.5C 1446.5,204.5 1446.5,250.5 1446.5,296.5C 1437.17,296.5 1427.83,296.5 1418.5,296.5C 1418.5,250.5 1418.5,204.5 1418.5,158.5C 1393.83,158.5 1369.17,158.5 1344.5,158.5C 1344.5,149.833 1344.5,141.167 1344.5,132.5 Z"/></g>
<g><path style="opacity:0.958" fill="#3f3f3f" d="M 1715.5,132.5 C 1715.5,133.167 1715.5,133.833 1715.5,134.5C 1689.2,168.983 1663.03,203.649 1637,238.5C 1636.5,257.83 1636.33,277.164 1636.5,296.5C 1626.83,296.5 1617.17,296.5 1607.5,296.5C 1607.67,277.497 1607.5,258.497 1607,239.5C 1580.31,204.308 1553.81,168.975 1527.5,133.5C 1538.48,132.334 1549.48,132.168 1560.5,133C 1581,160.167 1601.5,187.333 1622,214.5C 1642.17,187.5 1662.33,160.5 1682.5,133.5C 1693.48,132.501 1704.48,132.168 1715.5,132.5 Z"/></g>
<g><path style="opacity:1" fill="#f8ae96" d="M 68.5,206.5 C 67.501,259.997 67.1677,313.664 67.5,367.5C 67.1667,367.5 66.8333,367.5 66.5,367.5C 66.1667,313.496 66.5001,259.496 67.5,205.5C 68.1067,205.624 68.44,205.957 68.5,206.5 Z"/></g>
<g><path style="opacity:1" fill="#f15c2b" d="M 88.5,250.5 C 118.608,267.39 148.608,284.557 178.5,302C 188.032,307.887 198.032,308.887 208.5,305C 239.415,287.627 270.248,270.127 301,252.5C 301.667,259.833 301.667,267.167 301,274.5C 268.832,294.168 235.998,312.668 202.5,330C 198.167,330.667 193.833,330.667 189.5,330C 155.677,311.592 122.344,292.425 89.5,272.5C 88.5027,265.197 88.1694,257.863 88.5,250.5 Z"/></g>
</svg>
