<?xml version="1.0" encoding="UTF-8"?>
<!DOCTYPE svg PUBLIC "-//W3C//DTD SVG 1.1//EN" "http://www.w3.org/Graphics/SVG/1.1/DTD/svg11.dtd">
<svg xmlns="http://www.w3.org/2000/svg" version="1.1" width="2000px" height="195px" style="shape-rendering:geometricPrecision; text-rendering:geometricPrecision; image-rendering:optimizeQuality; fill-rule:evenodd; clip-rule:evenodd" xmlns:xlink="http://www.w3.org/1999/xlink">
<g><path style="opacity:0.923" fill="#4284f3" d="M 65.5,-0.5 C 73.5,-0.5 81.5,-0.5 89.5,-0.5C 104.054,2.30044 117.054,8.46711 128.5,18C 130.329,19.1133 131.163,20.6133 131,22.5C 126.289,27.5463 121.289,32.213 116,36.5C 93.6675,18.2603 70.1675,16.7603 45.5,32C 25.5221,48.6373 19.3554,69.4706 27,94.5C 36.6122,117.64 53.9456,129.64 79,130.5C 97.647,130.679 111.98,123.013 122,107.5C 124.283,102.036 125.783,96.369 126.5,90.5C 109.833,90.5 93.1667,90.5 76.5,90.5C 76.5,83.5 76.5,76.5 76.5,69.5C 100.833,69.5 125.167,69.5 149.5,69.5C 152.26,89.8674 148.427,108.867 138,126.5C 119.122,149.023 94.9555,158.189 65.5,154C 36.4683,148.633 15.9683,132.467 4,105.5C 2.63141,100.336 1.13141,95.336 -0.5,90.5C -0.5,81.1667 -0.5,71.8333 -0.5,62.5C 8.46288,27.871 30.4629,6.871 65.5,-0.5 Z"/></g>
<g><path style="opacity:0.96" fill="#37a553" d="M 492.5,-0.5 C 500.5,-0.5 508.5,-0.5 516.5,-0.5C 516.5,50.1667 516.5,100.833 516.5,151.5C 508.58,151.815 500.747,151.482 493,150.5C 492.5,100.168 492.333,49.8344 492.5,-0.5 Z"/></g>
<g><path style="opacity:1" fill="#5d5d5d" d="M 721.5,6.5 C 743.334,3.34324 760.501,10.6766 773,28.5C 774.411,30.6504 775.245,32.9837 775.5,35.5C 770.217,36.7073 765.217,38.7073 760.5,41.5C 751.724,25.1203 738.39,19.9536 720.5,26C 705.525,35.8623 704.859,46.529 718.5,58C 729.823,62.6607 741.157,67.3274 752.5,72C 773.968,82.4383 781.801,99.2716 776,122.5C 771.526,133.641 763.692,141.474 752.5,146C 729.78,151.543 710.613,145.709 695,128.5C 691.026,123.256 688.192,117.423 686.5,111C 686.645,110.228 686.978,109.561 687.5,109C 692.388,107.306 697.222,105.472 702,103.5C 704.56,107.614 706.893,111.948 709,116.5C 722.382,132.119 737.882,134.619 755.5,124C 762.529,116.519 764.029,108.019 760,98.5C 757.463,95.628 754.63,93.128 751.5,91C 737.512,85.0011 723.512,79.0011 709.5,73C 690.799,61.5113 685.966,45.6779 695,25.5C 701.803,16.1765 710.637,9.84318 721.5,6.5 Z"/></g>
<g><path style="opacity:1" fill="#5d5d5d" d="M 1372.5,6.5 C 1398.34,2.6119 1420.01,10.1119 1437.5,29C 1434.04,33.3498 1430.21,37.5164 1426,41.5C 1406.6,21.5295 1384.43,18.0295 1359.5,31C 1336.99,47.5394 1329.82,69.3727 1338,96.5C 1349.04,121.215 1368.2,132.381 1395.5,130C 1402.66,129.059 1409.32,126.726 1415.5,123C 1420.01,119.153 1424.51,115.32 1429,111.5C 1432.99,114.82 1436.99,118.153 1441,121.5C 1441.67,122.5 1441.67,123.5 1441,124.5C 1417.74,147.354 1390.58,153.521 1359.5,143C 1325.72,126.268 1311.88,99.1014 1318,61.5C 1325.03,31.9683 1343.2,13.6349 1372.5,6.5 Z"/></g>
<g><path style="opacity:1" fill="#5d5d5d" d="M 1174.5,7.5 C 1180.43,7.19177 1186.26,7.5251 1192,8.5C 1192.59,24.5326 1192.59,40.5326 1192,56.5C 1204.69,43.2012 1219.86,39.3678 1237.5,45C 1248.8,50.3051 1255.63,59.1384 1258,71.5C 1258.5,95.4977 1258.67,119.498 1258.5,143.5C 1252.5,143.5 1246.5,143.5 1240.5,143.5C 1240.95,120.122 1240.45,96.7891 1239,73.5C 1235.9,63.9318 1229.23,58.9318 1219,58.5C 1206,60.4993 1197.67,67.8327 1194,80.5C 1192.71,101.116 1192.05,121.782 1192,142.5C 1186,143.833 1180,143.833 1174,142.5C 1173.17,97.4291 1173.34,52.4291 1174.5,7.5 Z"/></g>
<g><path style="opacity:1" fill="#5d5e5d" d="M 1871.5,7.5 C 1877.76,7.19031 1883.92,7.52364 1890,8.5C 1890.67,53.5 1890.67,98.5 1890,143.5C 1883.92,144.476 1877.76,144.81 1871.5,144.5C 1871.5,98.8333 1871.5,53.1667 1871.5,7.5 Z"/></g>
<g><path style="opacity:1" fill="#5d5d5d" d="M 833.5,43.5 C 871.209,42.2079 889.876,60.5413 889.5,98.5C 864.167,98.5 838.833,98.5 813.5,98.5C 814.373,118.372 824.706,129.039 844.5,130.5C 850.734,130.366 856.4,128.533 861.5,125C 865.754,121.253 869.421,117.086 872.5,112.5C 876.924,114.643 881.257,116.976 885.5,119.5C 886.583,120.365 886.749,121.365 886,122.5C 868.569,148.419 845.735,154.585 817.5,141C 797.859,126.768 790.359,107.601 795,83.5C 800.325,62.679 813.158,49.3457 833.5,43.5 Z M 839.5,59.5 C 852.224,60.0564 861.391,66.0564 867,77.5C 867.311,79.556 867.811,81.556 868.5,83.5C 849.842,84.6663 831.176,84.833 812.5,84C 816.387,69.9363 825.387,61.7696 839.5,59.5 Z"/></g>
<g><path style="opacity:1" fill="#5d5d5d" d="M 935.5,43.5 C 948.86,42.091 961.193,44.9243 972.5,52C 979.131,57.7657 983.298,64.9323 985,73.5C 985.5,97.1643 985.667,120.831 985.5,144.5C 979.833,144.5 974.167,144.5 968.5,144.5C 968.666,140.486 968.499,136.486 968,132.5C 956.743,146.805 942.243,151.305 924.5,146C 900.763,135.458 894.93,118.625 907,95.5C 916.672,85.5511 928.505,81.2178 942.5,82.5C 949.197,82.6074 955.863,83.1074 962.5,84C 964.167,84.8333 965.833,85.6667 967.5,86.5C 969.497,75.6612 965.497,67.8279 955.5,63C 940.435,58.1369 927.768,61.6369 917.5,73.5C 913.069,70.8676 908.902,67.8676 905,64.5C 904.333,63.5 904.333,62.5 905,61.5C 909.971,55.2023 916.137,50.369 923.5,47C 927.647,45.8905 931.647,44.7239 935.5,43.5 Z M 938.5,95.5 C 948.69,95.097 958.357,97.097 967.5,101.5C 966.827,119.845 957.16,129.845 938.5,131.5C 922.45,130.301 916.283,121.968 920,106.5C 924.468,99.8539 930.635,96.1872 938.5,95.5 Z"/></g>
<g><path style="opacity:1" fill="#5d5d5d" d="M 1045.5,44.5 C 1051,44.0682 1056.33,44.7348 1061.5,46.5C 1062.5,52.7985 1062.83,59.1318 1062.5,65.5C 1046.49,59.2647 1034.32,63.5981 1026,78.5C 1025.18,80.7885 1024.51,83.1218 1024,85.5C 1023.5,105.497 1023.33,125.497 1023.5,145.5C 1017.83,145.5 1012.17,145.5 1006.5,145.5C 1006.5,112.5 1006.5,79.5 1006.5,46.5C 1011.84,46.334 1017.18,46.5006 1022.5,47C 1023.3,51.08 1023.8,55.2467 1024,59.5C 1029.01,51.4104 1036.18,46.4104 1045.5,44.5 Z"/></g>
<g><path style="opacity:1" fill="#5d5d5d" d="M 1106.5,43.5 C 1126.36,40.9438 1142.19,47.6105 1154,63.5C 1155.55,66.3117 1156.38,69.3117 1156.5,72.5C 1152.34,73.4983 1148.34,74.9983 1144.5,77C 1143.17,77.6667 1141.83,77.6667 1140.5,77C 1132.22,61.2342 1119.55,56.2342 1102.5,62C 1082.41,74.4958 1077.24,91.6625 1087,113.5C 1098.49,130.702 1113.32,134.202 1131.5,124C 1135.49,121.011 1138.32,117.178 1140,112.5C 1140.72,111.941 1141.56,111.608 1142.5,111.5C 1147.47,113.203 1152.14,115.37 1156.5,118C 1155.12,121.72 1153.29,125.22 1151,128.5C 1144.41,135.091 1137.25,140.924 1129.5,146C 1101.35,152.189 1081.18,142.355 1069,116.5C 1065.67,102.833 1065.67,89.1667 1069,75.5C 1076.2,58.4557 1088.7,47.789 1106.5,43.5 Z"/></g>
<g><path style="opacity:1" fill="#5d5d5d" d="M 1491.5,44.5 C 1532.07,43.9072 1551.57,63.9072 1550,104.5C 1546.27,126.901 1533.43,141.068 1511.5,147C 1473.9,150.232 1453.57,133.065 1450.5,95.5C 1452.58,68.9249 1466.25,51.9249 1491.5,44.5 Z M 1499.5,59.5 C 1521.04,62.2026 1532.37,74.3693 1533.5,96C 1532.67,117.332 1521.67,129.166 1500.5,131.5C 1484.97,130.136 1474.47,122.136 1469,107.5C 1463.9,86.7596 1470.73,71.593 1489.5,62C 1492.99,61.262 1496.32,60.4287 1499.5,59.5 Z"/></g>
<g><path style="opacity:1" fill="#5d5d5d" d="M 1606.5,44.5 C 1631.2,41.7317 1645.7,52.3984 1650,76.5C 1650.5,99.4976 1650.67,122.498 1650.5,145.5C 1644.5,145.5 1638.5,145.5 1632.5,145.5C 1632.67,124.497 1632.5,103.497 1632,82.5C 1629.54,64.7608 1619.38,57.9275 1601.5,62C 1593.18,65.6549 1587.68,71.8215 1585,80.5C 1583.58,101.798 1583.08,123.131 1583.5,144.5C 1577.5,144.5 1571.5,144.5 1565.5,144.5C 1565.33,112.165 1565.5,79.8316 1566,47.5C 1571.41,46.5268 1576.91,46.1934 1582.5,46.5C 1582.33,51.1785 1582.5,55.8452 1583,60.5C 1588.87,52.0995 1596.71,46.7662 1606.5,44.5 Z"/></g>
<g><path style="opacity:1" fill="#5d5d5d" d="M 1999.5,81.5 C 1999.5,87.1667 1999.5,92.8333 1999.5,98.5C 1974.5,98.5 1949.5,98.5 1924.5,98.5C 1925.37,118.372 1935.71,129.039 1955.5,130.5C 1967.99,129.664 1977.16,123.664 1983,112.5C 1988.41,114.449 1993.24,117.283 1997.5,121C 1981.76,146.691 1959.76,154.024 1931.5,143C 1909.85,129.408 1901.35,109.908 1906,84.5C 1909.79,68.0482 1918.95,55.5482 1933.5,47C 1967.32,36.7396 1989.32,48.2396 1999.5,81.5 Z M 1950.5,59.5 C 1965.79,60.6533 1975.46,68.6533 1979.5,83.5C 1960.83,84.8333 1942.17,84.8333 1923.5,83.5C 1927.61,69.7051 1936.61,61.7051 1950.5,59.5 Z"/></g>
<g><path style="opacity:1" fill="#5d5d5d" d="M 1796.5,44.5 C 1827.54,41.9058 1846.7,55.5724 1854,85.5C 1858.64,116.757 1846.14,137.257 1816.5,147C 1774.21,149.711 1754.04,129.878 1756,87.5C 1760.14,64.1998 1773.64,49.8665 1796.5,44.5 Z M 1803.5,59.5 C 1819.75,60.5863 1830.75,68.753 1836.5,84C 1841.62,102.995 1835.95,117.661 1819.5,128C 1802.15,134.547 1787.98,130.381 1777,115.5C 1770.17,100.22 1771.17,85.5531 1780,71.5C 1786.5,64.6688 1794.33,60.6688 1803.5,59.5 Z"/></g>
<g><path style="opacity:1" fill="#5d5d5d" d="M 1697.5,45.5 C 1713.26,43.1439 1726.76,47.4772 1738,58.5C 1739.63,60.9334 1741.13,63.4334 1742.5,66C 1742.36,66.772 1742.02,67.4387 1741.5,68C 1737.27,69.6959 1733.11,71.5293 1729,73.5C 1725.9,70.3997 1722.73,67.2331 1719.5,64C 1717.91,63.1376 1716.25,62.4709 1714.5,62C 1708.17,61.3333 1701.83,61.3333 1695.5,62C 1685.6,66.2658 1683.93,72.5991 1690.5,81C 1694.17,82.6667 1697.83,84.3333 1701.5,86C 1714.65,87.9361 1726.65,92.6027 1737.5,100C 1748.17,112.661 1748.17,125.328 1737.5,138C 1734.34,141.082 1730.67,143.416 1726.5,145C 1714.22,147.786 1701.88,148.119 1689.5,146C 1677.45,141.451 1668.78,133.285 1663.5,121.5C 1668.57,118.634 1673.9,116.301 1679.5,114.5C 1689.51,132.425 1703.85,136.925 1722.5,128C 1728.45,119.507 1726.78,112.84 1717.5,108C 1703.63,104.828 1690.3,100.161 1677.5,94C 1668.25,86.9829 1665.08,77.8162 1668,66.5C 1669.96,60.2013 1673.8,55.368 1679.5,52C 1685.32,48.9024 1691.32,46.7357 1697.5,45.5 Z"/></g>
<g><path style="opacity:0.92" fill="#e84235" d="M 573.5,49.5 C 601.248,49.3668 618.581,62.7001 625.5,89.5C 603.757,97.7216 581.757,106.555 559.5,116C 568.722,130.046 581.056,133.379 596.5,126C 600.044,122.625 603.377,119.125 606.5,115.5C 612.795,119.141 618.795,123.141 624.5,127.5C 612.165,145.33 595.165,152.83 573.5,150C 543.274,141.88 529.274,122.214 531.5,91C 536.812,68.1871 550.812,54.3538 573.5,49.5 Z M 579.5,70.5 C 586.373,70.9549 592.206,73.6215 597,78.5C 597.483,79.448 597.649,80.448 597.5,81.5C 583.751,86.8716 570.084,92.5383 556.5,98.5C 556.556,83.1121 564.222,73.7787 579.5,70.5 Z"/></g>
<g><path style="opacity:0.926" fill="#e84335" d="M 202.5,50.5 C 225.329,47.8153 243.163,55.8153 256,74.5C 265.977,95.2114 264.311,114.878 251,133.5C 228.994,154.679 205.16,157.012 179.5,140.5C 161.244,123.423 156.744,102.756 166,78.5C 174.016,63.6391 186.182,54.3057 202.5,50.5 Z M 210.5,71.5 C 232.419,74.6229 241.586,87.2895 238,109.5C 231.39,127.531 218.557,133.364 199.5,127C 183.454,114.976 180.287,100.143 190,82.5C 195.587,76.2927 202.421,72.626 210.5,71.5 Z"/></g>
<g><path style="opacity:0.937" fill="#f9ba08" d="M 313.5,50.5 C 340.264,47.8082 359.431,58.4749 371,82.5C 378.46,111.983 368.96,133.983 342.5,148.5C 310.101,156.966 287.101,145.799 273.5,115C 268.24,89.8285 276.573,70.1618 298.5,56C 303.587,54.0305 308.587,52.1972 313.5,50.5 Z M 321.5,71.5 C 339.964,72.9643 349.631,82.9643 350.5,101.5C 346.654,124.922 333.32,133.422 310.5,127C 294.219,114.373 291.386,99.206 302,81.5C 307.433,75.8679 313.933,72.5346 321.5,71.5 Z"/></g>
<g><path style="opacity:0.924" fill="#4284f2" d="M 441.5,194.5 C 434.5,194.5 427.5,194.5 420.5,194.5C 407.098,190.949 396.598,183.282 389,171.5C 387.41,169.35 386.743,167.017 387,164.5C 392.949,161.35 399.116,158.683 405.5,156.5C 408.892,163.062 413.892,168.228 420.5,172C 445.298,177.162 457.131,166.995 456,141.5C 438.979,154.317 421.479,154.817 403.5,143C 384.523,126.386 378.69,105.886 386,81.5C 399.175,54.3233 420.009,45.49 448.5,55C 451,56.8333 453.5,58.6667 456,60.5C 456.497,57.854 456.664,55.1873 456.5,52.5C 463.833,52.5 471.167,52.5 478.5,52.5C 478.967,88.2072 478.467,123.874 477,159.5C 474.546,170.928 468.713,180.094 459.5,187C 453.672,190.212 447.672,192.712 441.5,194.5 Z M 430.5,71.5 C 445.381,72.8911 453.714,80.7244 455.5,95C 458.596,107.566 454.929,117.899 444.5,126C 432.893,131.692 422.393,130.192 413,121.5C 404.01,108.295 403.676,94.9619 412,81.5C 416.918,75.6279 423.084,72.2945 430.5,71.5 Z"/></g>
</svg>
