<?xml version="1.0" standalone="no"?>
<!DOCTYPE svg PUBLIC "-//W3C//DTD SVG 20010904//EN"
 "http://www.w3.org/TR/2001/REC-SVG-20010904/DTD/svg10.dtd">
<svg version="1.0" xmlns="http://www.w3.org/2000/svg"
 width="500.000000pt" height="500.000000pt" viewBox="0 0 500.000000 500.000000"
 preserveAspectRatio="xMidYMid meet">
<metadata>
Created by potrace 1.10, written by Peter Selinger 2001-2011
</metadata>
<g transform="translate(0.000000,500.000000) scale(0.050000,-0.050000)"
fill="#000000" stroke="none">
<path d="M4230 9988 c-3671 -295 -5507 -4462 -3221 -7308 1544 -1922 4433
-2219 6330 -650 l156 130 150 -68 c382 -175 770 -239 1151 -192 193 23 204 27
204 71 0 41 -12 48 -95 58 -371 44 -689 160 -997 365 l-107 71 45 55 c24 30
95 116 157 192 1691 2063 1112 5259 -1203 6642 -747 446 -1768 698 -2570 634z
m907 -297 c1582 -269 2812 -1288 3349 -2771 514 -1423 201 -3064 -802 -4200
l-79 -89 -90 74 c-311 255 -869 836 -2085 2173 -754 829 -716 782 -633 782
386 0 805 305 1017 740 433 887 79 1791 -803 2048 -187 54 -2511 77 -2511 25
0 -20 33 -34 105 -43 201 -27 348 -125 429 -288 34 -68 36 -195 36 -2272 l0
-2200 -43 -80 c-87 -162 -259 -269 -432 -270 -82 0 -95 -6 -95 -40 0 -39 13
-40 820 -40 807 0 820 1 820 40 0 34 -13 40 -96 40 -212 0 -419 172 -463 385
-15 73 -20 788 -16 2335 l5 2230 440 6 c542 7 711 -11 879 -94 599 -295 741
-1451 240 -1954 -226 -227 -469 -307 -974 -322 -313 -10 -335 -13 -335 -49 0
-22 22 -47 55 -61 114 -49 242 -177 869 -872 355 -393 807 -894 1006 -1114
198 -220 457 -508 574 -640 291 -329 651 -664 900 -838 40 -28 41 -34 13 -57
-926 -740 -1933 -1073 -3014 -997 -3357 239 -5125 4071 -3118 6759 925 1240
2550 1906 4032 1654z"/>
</g>
</svg>
